<?xml version="1.0" encoding="iso-8859-1"?>
<!-- Generator: Adobe Illustrator 21.1.0, SVG Export Plug-In . SVG Version: 6.00 Build 0)  -->
<svg version="1.1" xmlns="http://www.w3.org/2000/svg" xmlns:xlink="http://www.w3.org/1999/xlink" x="0px" y="0px"
	 viewBox="0 0 18 18" style="enable-background:new 0 0 18 18;" xml:space="preserve" fill="#FFFF">
<g id="Phone">
	<path d="M13.48,11.652c-0.318-0.186-0.708-0.182-1.024,0.005l-1.601,0.954c-0.358,0.214-0.806,0.189-1.135-0.068
		c-0.568-0.444-1.483-1.19-2.279-1.986C6.645,9.761,5.898,8.846,5.455,8.278C5.198,7.949,5.173,7.502,5.387,7.143l0.954-1.601
		c0.189-0.316,0.19-0.71,0.004-1.028L3.995,0.501C3.767,0.113,3.315-0.078,2.878,0.03C2.453,0.133,1.901,0.385,1.323,0.964
		C-0.488,2.775-1.45,5.829,5.36,12.64s9.864,5.849,11.676,4.037c0.58-0.58,0.831-1.132,0.935-1.558
		c0.106-0.437-0.082-0.886-0.47-1.113C16.534,13.44,14.448,12.219,13.48,11.652z"/>
</g>
<g id="Layer_1">
</g>
</svg>
